<svg 
    width="64" 
    height="64" 
    viewBox="0 0 24 24" 
    fill="none" 
    xmlns="http://www.w3.org/2000/svg"
    aria-labelledby="heartGuardTitle" 
    role="img"
>
  <title id="heartGuardTitle">Heart Guard Icon</title>
  <!-- Capa de fondo (escudo) -->
  <path 
    d="M12 2L4 5v6c0 5.1 3.33 10 8 11.3 4.67-1.3 8-6.2 8-11.3V5l-8-3z" 
    fill="#E53E3E"
  />
  <!-- Capa de contorno del escudo (opcional) -->
  <path
    d="M12 2L4 5v6c0 5.1 3.33 10 8 11.3 4.67-1.3 8-6.2 8-11.3V5l-8-3z"
    stroke="#C53030"
    stroke-width="1.5"
    fill="none"
  />
  <!-- Corazón interno -->
  <path 
    d="M12 14.5l-3.53-3.42a2.25 2.25 0 0 1 .06-3.24c.91-.82 2.38-.75 3.23.16l.24.26.24-.26c.85-.91 2.32-.98 3.23-.16a2.25 2.25 0 0 1 .06 3.24L12 14.5z" 
    fill="#fff"
  />
</svg>